<svg width="120" height="121" viewBox="0 0 120 121" fill="none" xmlns="http://www.w3.org/2000/svg">
<ellipse cx="28.2048" cy="3.5897" rx="28.2048" ry="3.5897" transform="matrix(1 0 0 -1 63.5898 64.6172)" fill="#FBF840"/>
<ellipse cx="28.2048" cy="3.5897" rx="28.2048" ry="3.5897" transform="matrix(1 0 0 -1 0 64.2773)" fill="#FBF840"/>
<ellipse cx="28.2048" cy="3.5897" rx="28.2048" ry="3.5897" transform="matrix(0.707107 0.707107 0.707107 -0.707107 59.8281 66.4375)" fill="#4CCA72"/>
<ellipse cx="28.2048" cy="3.5897" rx="28.2048" ry="3.5897" transform="matrix(0 1 1 0 56.4082 -0.00195312)" fill="#5349C2"/>
<ellipse cx="28.2048" cy="3.5897" rx="28.2048" ry="3.5897" transform="matrix(-0.707107 -0.707107 -0.707107 0.707107 59.666 55.7812)" fill="#4CCA72"/>
<ellipse cx="28.2048" cy="3.5897" rx="28.2048" ry="3.5897" transform="matrix(-0.707107 0.707107 0.707107 0.707107 99.7148 15.8965)" fill="#FF2C2C"/>
<ellipse cx="28.2048" cy="3.5897" rx="28.2048" ry="3.5897" transform="matrix(-0.707107 0.707107 0.707107 0.707107 54.5859 61.3574)" fill="#FF2C2C"/>
<ellipse cx="28.2048" cy="3.5897" rx="28.2048" ry="3.5897" transform="matrix(0 1 1 0 56.4082 64.2773)" fill="#5349C2"/>
</svg>
