<svg width="33" height="34" viewBox="0 0 33 34" fill="none" xmlns="http://www.w3.org/2000/svg">
<ellipse cx="7.75631" cy="0.987167" rx="7.75631" ry="0.987167" transform="matrix(1 0 0 -1 17.4883 17.7695)" fill="#FF2A6D"/>
<ellipse cx="7.75631" cy="0.987167" rx="7.75631" ry="0.987167" transform="matrix(1 0 0 -1 0 17.6777)" fill="#FBF840"/>
<ellipse cx="7.75631" cy="0.987167" rx="7.75631" ry="0.987167" transform="matrix(0.707107 0.707107 0.707107 -0.707107 16.4531 18.2715)" fill="#FBF840"/>
<ellipse cx="7.75631" cy="0.987167" rx="7.75631" ry="0.987167" transform="matrix(0 1 1 0 15.5117 0)" fill="#E65AFF"/>
<ellipse cx="7.75631" cy="0.987167" rx="7.75631" ry="0.987167" transform="matrix(-0.707107 -0.707107 -0.707107 0.707107 16.4082 15.3398)" fill="#FF4A4A"/>
<ellipse cx="7.75631" cy="0.987167" rx="7.75631" ry="0.987167" transform="matrix(-0.707107 0.707107 0.707107 0.707107 27.4219 4.37109)" fill="#2282FF"/>
<ellipse cx="7.75631" cy="0.987167" rx="7.75631" ry="0.987167" transform="matrix(-0.707107 0.707107 0.707107 0.707107 15.0117 16.873)" fill="#FF6828"/>
<ellipse cx="7.75631" cy="0.987167" rx="7.75631" ry="0.987167" transform="matrix(0 1 1 0 15.5117 17.6777)" fill="#0EEB88"/>
</svg>
